<svg xmlns="http://www.w3.org/2000/svg" width="144" height="144" viewBox="0 0 144 144">
  <g fill="none">
    <rect width="144" height="144" fill="#FF00E8"/>
    <g transform="translate(33 67)">
      <path fill="#000" d="M75,0 C76.6192,0 77.9388,1.2828 77.998,2.8875 L78,3 L78,7 L81,7 C82.1046,7 83,7.8954 83,9 L83,15 C83,16.1046 82.1046,17 81,17 L9,17 C7.8954,17 7,16.1046 7,15 L7,12 L3,12 C1.3808,12 0.0612,10.7172 0.002,9.1125 L0,9 L0,3 C0,1.3808 1.2828,0.0612 2.8875,0.002 L3,0 L75,0 Z M75,2 L3,2 C2.4728,2 2.041,2.408 2.0027,2.9254 L2,3 L2,9 C2,9.5272 2.408,9.959 2.9254,9.9973 L3,10 L75,10 C75.5272,10 75.959,9.592 75.9973,9.0746 L76,9 L76,3 C76,2.4728 75.592,2.041 75.0746,2.0027 L75,2 Z"/>
      <path fill="#FFF" d="M3,2 L75,2 C75.5523,2 76,2.4477 76,3 L76,9 C76,9.5523 75.5523,10 75,10 L3,10 C2.4477,10 2,9.5523 2,9 L2,3 C2,2.4477 2.4477,2 3,2 Z" opacity=".5"/>
      <path fill="#FFF" d="M19.798399,2.50262884 C20.349299,2.46282884 20.828099,2.87712884 20.867899,3.42792884 C20.903299,3.91752884 20.579899,4.35032884 20.120699,4.46842884 L19.942699,4.49742884 L6.10839896,5.49742884 C5.55749896,5.53722884 5.07869896,5.12292884 5.03889896,4.57212884 C5.00349896,4.08252884 5.32689896,3.64972884 5.78599896,3.53162884 L5.96419896,3.50262884 L19.798399,2.50262884 L19.798399,2.50262884 Z" transform="rotate(4.134 12.953 4)"/>
    </g>
  </g>
</svg>
