<svg xmlns="http://www.w3.org/2000/svg" width="144" height="144" viewBox="0 0 144 144">
  <g fill="none">
    <rect width="144" height="144" fill="#000" opacity=".013"/>
    <path fill="#FFF" d="M72,27 C90,27 105,39 105,57 C105,75 84,90 82.5,96 C81,102 73.5,117 61.5,117 C49.5,117 42,109.5 42,99 L42,96 L48,96 L48,99 L48,99 C48,106.5 54,111 61.5,111 C69,111 76.5,97.5 78,91.5 C79.5,85.5 99,72 99,57 C99,42 87,33 72,33 C57,33 45,42 45,57 L45,60 L45,60 L39,60 L39,57 C39,39 54,27 72,27 Z M72,45 C80.2842712,45 87,51.7157288 87,60 C87,61.028655 87.1972335,65.0295669 87,66 L81,66 C81.3322634,65.0608997 81,61.0529161 81,60 C81,55.0294373 76.9705627,51 72,51 C67.0294373,51 63,55.0294373 63,60 C63,64.9705627 72,69 72,78 C72,87 65.2842712,93 57,93 L57,87 C61.9705627,87 66,84 66,78 C66,72 57,68.2842712 57,60 C57,51.7157288 63.7157288,45 72,45 Z"/>
  </g>
</svg>
