<svg xmlns="http://www.w3.org/2000/svg" width="144" height="144" viewBox="0 0 144 144">
  <g fill="none">
    <rect width="144" height="144" fill="#CFD924"/>
    <g transform="translate(31.206 31.65)">
      <path fill="#FFF" d="M21.3492063,48.5714284 L21.6531208,48.5831289 C23.6588528,48.7381714 25.2380953,50.4148184 25.2380953,52.4603174 L25.2380953,52.4603174 L25.2380953,75.7936509 L25.2263948,76.0975654 C25.0791048,78.0030103 23.5585663,79.5235494 21.6531208,79.6708394 L21.6531208,79.6708394 L21.3492063,79.6825398 L13.5714286,79.6825398 L13.2675142,79.6708394 C11.2617822,79.5157969 9.6825397,77.8391498 9.6825397,75.7936509 L9.6825397,75.7936509 L9.6825397,52.4603174 L9.6942399,52.1564029 C9.8492823,50.1506709 11.5259295,48.5714284 13.5714286,48.5714284 L13.5714286,48.5714284 L21.3492063,48.5714284 Z M68.0158728,48.5714284 L68.3197873,48.5831289 C70.3255193,48.7381714 71.9047618,50.4148184 71.9047618,52.4603174 L71.9047618,52.4603174 L71.9047618,75.7936509 L71.8930618,76.0975654 C71.7457713,78.0030103 70.2252328,79.5235494 68.3197873,79.6708394 L68.3197873,79.6708394 L68.0158728,79.6825398 L60.2380953,79.6825398 L59.9341808,79.6708394 C57.9284488,79.5157969 56.3492063,77.8391498 56.3492063,75.7936509 L56.3492063,75.7936509 L56.3492063,52.4603174 L56.3609068,52.1564029 C56.5159488,50.1506709 58.1925963,48.5714284 60.2380953,48.5714284 L60.2380953,48.5714284 L68.0158728,48.5714284 Z M40.7936508,1.9047619 C61.9073618,1.9047619 79.0911628,18.7307039 79.6675993,39.7051319 L79.6675993,39.7051319 L79.6825398,40.7936509 L79.6825398,62.1825399 L79.6694578,62.4093029 C79.5657768,63.3019624 78.8575178,64.0102214 77.9648583,64.1139024 L77.9648583,64.1139024 L77.7380953,64.1269844 L77.5030718,64.1129253 C76.6555803,64.0108204 75.9758983,63.3635464 75.8249783,62.5320559 L75.8249783,62.5320559 L75.7936508,62.1825399 L75.7936508,40.7936509 L75.7875978,40.1361104 C75.4370413,21.1095709 59.9039583,5.7936508 40.7936508,5.7936508 C21.8088623,5.7936508 6.35446195,20.9090374 5.8085729,39.7616864 L5.8085729,39.7616864 L5.7936508,40.7936509 L5.7936508,62.1825399 L5.7805691,62.4093029 C5.67688815,63.3019624 4.96862885,64.0102214 4.07596965,64.1139024 L4.07596965,64.1139024 L3.84920635,64.1269844 L3.614183,64.1129253 C2.7666916,64.0108204 2.08700935,63.3635464 1.9360895,62.5320559 L1.9360895,62.5320559 L1.9047619,62.1825399 L1.9047619,40.7936509 L1.9106573,40.1095879 C2.2756721,18.9474309 19.5443973,1.9047619 40.7936508,1.9047619 Z" opacity=".8"/>
      <path fill="#000" d="M40.7936508,2.88657986e-15 C60.0165338,2.88657986e-15 76.1864853,13.3151124 80.4745373,31.3035024 C82.4020048,35.7357719 83.5272258,40.5974454 83.6675993,45.7051319 L83.6825398,46.7936509 L83.6825398,68.1825398 C83.6825398,69.2564268 82.8119823,70.1269844 81.7380953,70.1269844 C80.7835288,70.1269844 79.9896183,69.4391363 79.8249783,68.5320559 L79.7936508,68.1825398 L79.7939733,65.4373169 C79.1991858,65.8138019 78.4940923,66.0317459 77.7380953,66.0317459 C77.0779468,66.0317459 76.4527468,65.8645309 75.9046223,65.5604859 L75.9047618,81.7936509 C75.9047618,83.9414249 74.1636468,85.6825398 72.0158728,85.6825398 L64.2380953,85.6825398 C62.0903213,85.6825398 60.3492063,83.9414249 60.3492063,81.7936509 L60.3489998,81.5869998 L60.2380953,81.5873014 C57.1526268,81.5873014 54.6304963,79.1753664 54.4542793,76.1340718 L54.4444443,75.7936509 L54.4444443,52.4603174 C54.4444443,49.3748488 56.8563798,46.8527183 59.8976743,46.6765019 L60.2380953,46.6666669 L68.0158728,46.6666669 C71.1013413,46.6666669 73.6234723,49.0786019 73.7996888,52.1198964 L73.8095238,52.4603174 L73.8098978,55.0090618 C73.8364138,55.0228738 73.8627508,55.0369818 73.8889038,55.0513824 L73.8888888,40.7936509 C73.8888888,32.0527998 70.5003093,24.1033939 64.9651438,18.1874279 C59.2637118,14.1598112 52.3050043,11.7936509 44.7936508,11.7936509 C25.8088623,11.7936509 10.3544619,26.9090374 9.8085729,45.7616864 L9.7936508,46.7936509 L9.7937249,48.0675389 C10.7277375,47.2635734 11.9209866,46.7524064 13.2310076,46.6765019 L13.5714286,46.6666669 L21.3492063,46.6666669 C24.4346748,46.6666669 26.9568053,49.0786019 27.1330223,52.1198964 L27.1428573,52.4603174 L27.1430648,55.0089754 C28.3879953,55.6573589 29.2380953,56.9595624 29.2380953,58.4603174 L29.2380953,81.7936509 C29.2380953,83.9414249 27.4969803,85.6825398 25.3492063,85.6825398 L17.5714286,85.6825398 C15.4236545,85.6825398 13.6825397,83.9414249 13.6825397,81.7936509 L13.6825,81.5869998 L13.5714286,81.5873014 C10.4859602,81.5873014 7.9638295,79.1753664 7.7876129,76.1340718 L7.7777778,75.7936509 L7.7775,70.1244999 L7.7475675,70.1243733 C6.83873485,70.0775723 6.09484935,69.4067404 5.9360895,68.5320559 L5.9047619,68.1825398 L5.9050842,65.4373169 C5.31029705,65.8138019 4.60520345,66.0317459 3.84920635,66.0317459 C2.08456775,66.0317459 0.56964885,64.8369199 0.10909795,63.0276449 L0.038933,62.7021009 L1.77635684e-15,62.1825399 L1.77635684e-15,40.7936509 C1.77635684e-15,18.2639396 18.2639396,2.88657986e-15 40.7936508,2.88657986e-15 Z M20.7934998,48.5709998 L13.5714286,48.5714284 L13.4440756,48.5734744 C11.4567296,48.6374154 9.8460522,50.1924574 9.6942399,52.1564029 L9.6942399,52.1564029 L9.6825397,52.4603174 L9.6825397,75.7936509 L9.68458555,75.9210039 C9.74852655,77.9083499 11.3035683,79.5190274 13.2675142,79.6708394 L13.2675142,79.6708394 L13.5714286,79.6825398 L20.7934998,79.6825398 L20.7934998,48.5709998 Z M68.0158728,48.5714284 L60.7934998,48.5709998 L60.7934998,79.6825398 L68.0158728,79.6825398 L68.3197873,79.6708394 L68.4462358,79.6589964 C70.2921343,79.4557798 71.7490448,77.9606674 71.8930618,76.0975653 L71.8930618,76.0975653 L71.9047618,75.7936509 L71.9047618,52.4603174 L71.9027158,52.3329644 C71.8387748,50.3456184 70.2837333,48.7349413 68.3197873,48.5831289 L68.3197873,48.5831289 L68.0158728,48.5714284 Z M22.7939623,48.8486444 L22.7938998,79.4053489 C24.1368373,78.8676818 25.1100478,77.6027084 25.2263948,76.0975653 L25.2263948,76.0975653 L25.2380953,75.7936509 L25.2380953,52.4603174 L25.2360493,52.3329644 C25.1851418,50.7507139 24.1890633,49.4072244 22.7939623,48.8486444 Z M58.7936278,48.8485289 C57.4505733,49.3861444 56.4772603,50.6511754 56.3609068,52.1564029 L56.3609068,52.1564029 L56.3492063,52.4603174 L56.3492063,75.7936509 L56.3512523,75.9210039 C56.4021598,77.5032544 57.3982383,78.8467444 58.7933393,79.4053239 L58.7936278,48.8485289 Z M40.7936508,1.9047619 C19.5443973,1.9047619 2.2756721,18.9474308 1.9106573,40.1095879 L1.9106573,40.1095879 L1.9047619,40.7936509 L1.9047619,62.1825398 L1.9360895,62.5320559 L1.95671485,62.6309273 C2.14165245,63.4144558 2.80059125,64.0149044 3.614183,64.1129253 L3.614183,64.1129253 L3.84920635,64.1269844 L4.07596965,64.1139024 L4.1743738,64.0999159 C5.02026315,63.9575049 5.68072815,63.2689008 5.7805691,62.4093029 L5.7805691,62.4093029 L5.7936508,62.1825398 L5.7936508,40.7936509 L5.8085729,39.7616864 L5.8294107,39.1972394 C6.663903,20.6082414 21.9987103,5.7936508 40.7936508,5.7936508 C59.9039583,5.7936508 75.4370413,21.1095709 75.7875978,40.1361103 L75.7875978,40.1361103 L75.7936508,40.7936509 L75.7936508,62.1825398 L75.8249783,62.5320559 L75.8456038,62.6309273 C76.0305413,63.4144558 76.6894803,64.0149044 77.5030718,64.1129253 L77.5030718,64.1129253 L77.7380953,64.1269844 L77.9648583,64.1139024 L78.0632628,64.0999159 C78.9091518,63.9575049 79.5696173,63.2689008 79.6694578,62.4093029 L79.6694578,62.4093029 L79.6825398,62.1825398 L79.6825398,40.7936509 L79.6675993,39.7051319 L79.6453368,39.0771563 C78.7470938,18.3958679 61.6962243,1.9047619 40.7936508,1.9047619 Z M40.7936508,7.6984127 C25.7311173,7.6984127 12.9765818,17.7767308 8.99044235,31.5870119 C14.8773502,17.7434951 28.5588748,8.01336095 44.5258088,7.90566495 C43.3011268,7.7690477 42.0556378,7.6984127 40.7936508,7.6984127 Z"/>
      <path fill="#FFF" d="M17.4660507,50.7418894 C18.0183355,50.7418894 18.4660507,51.1896044 18.4660507,51.7418894 C18.4660507,52.2328089 18.1123004,52.6411059 17.645802,52.7257779 L17.4660507,52.7418894 L15.7069758,52.7418894 C14.1475837,52.7418894 12.8660785,53.9316654 12.720709,55.4529694 L12.7069758,55.7418894 L12.7069758,60.7123508 C12.7069758,61.2646354 12.2592606,61.7123508 11.7069758,61.7123508 C11.2160561,61.7123508 10.8077592,61.3586004 10.7230872,60.8921019 L10.7069758,60.7123508 L10.7069758,55.7418894 C10.7069758,53.0909223 12.7700478,50.9218119 15.3782245,50.7525244 L15.7069758,50.7418894 L17.4660507,50.7418894 Z"/>
    </g>
    <rect style="mix-blend-mode:multiply" width="144" height="144" fill="#000" opacity=".5"/>
    <path fill="#000" d="M115.840621,110.183766 C116.621669,110.964815 116.621669,112.231144 115.840621,113.012193 L113.012194,115.84062 C112.231145,116.621669 110.964815,116.621669 110.183766,115.84062 L28.1593796,33.8162338 C27.378331,33.0351852 27.378331,31.7688552 28.1593796,30.9878067 L30.9878067,28.1593795 C31.7688553,27.378331 33.0351853,27.378331 33.8162338,28.1593795 L115.840621,110.183766 Z M114.426407,111.597979 L32.4020203,29.5735931 L29.5735932,32.4020202 L111.59798,114.426407 L114.426407,111.597979 Z"/>
    <polygon fill="#FFF" points="130 70 14 70 14 74 130 74" transform="rotate(45 72 72)"/>
    <path fill="#000" fill-opacity=".4" d="M114,0 C120.021219,0 130.021219,0 144,0 C144,10.9023818 144,20.9023818 144,30 L144,114 C144,118.776827 144,128.776827 144,144 C130.268868,144 120.268868,144 114,144 L30,144 C23.3897242,144 13.3897242,144 0,144 C0,128.435419 0,118.435419 0,114 L0,30 C0,24.1780117 0,14.1780117 0,0 C14.7762933,0 24.7762933,0 30,0 L114,0 Z M114,8 L28,8 C15.9712382,8 8.19722475,15.6537257 8.00294735,27.6361897 L8,30 L8,116 C8,128.028762 15.6537258,135.802775 27.6361898,135.997052 L30,136 L116,136 C128.028762,136 135.802775,128.346274 135.997053,116.36381 L136,114 L136,28 C136,15.9712381 128.346274,8.19722475 116.36381,8.00294735 L114,8 Z"/>
  </g>
</svg>
