<svg xmlns="http://www.w3.org/2000/svg" width="288" height="288" viewBox="0 0 288 288">
    <g fill="none">
        <rect width="288" height="288" fill="#1E183C"/>
        <path fill="#000" stroke="#000" stroke-width="6" d="M159.232929,175.087954 C160.793793,174.047378 162.860521,174.356666 164.055888,175.740373 L164.055888,175.740373 L164.335779,176.108524 L201.616775,232.030018 L201.835789,232.404667 C202.09716,232.919211 202.234783,233.489983 202.234783,234.071158 C202.234783,235.958249 200.814264,237.51356 198.984198,237.726119 L198.984198,237.726119 L198.555065,237.750875 L123.993073,237.750875 L123.559859,237.725288 C122.98675,237.657344 122.4355,237.455245 121.951933,237.132868 C120.39107,236.092292 119.881671,234.065586 120.699182,232.429975 L120.699182,232.429975 L120.931363,232.030018 L158.212359,176.108524 L158.506894,175.724161 C158.719457,175.481655 158.963446,175.267609 159.232929,175.087954 Z M213.313134,79 L213.782962,79.0299379 C214.562563,79.1297309 215.31633,79.4790064 215.915088,80.0777643 C246.092489,110.255166 246.092489,159.1824 215.915088,189.359801 C215.31633,189.958559 214.562563,190.307835 213.782962,190.407628 L213.782962,190.407628 L213.313134,190.437566 C212.371413,190.437566 211.429691,190.078311 210.711181,189.359801 C209.274162,187.922782 209.274162,185.592914 210.711181,184.155895 C238.014544,156.852532 238.014544,112.585034 210.711181,85.2816708 C209.274162,83.8446517 209.274162,81.5147834 210.711181,80.0777643 C211.429691,79.3592548 212.371413,79 213.313134,79 L213.313134,79 Z M109.235004,79 L109.704832,79.0299379 C110.484433,79.1297309 111.238199,79.4790064 111.836957,80.0777643 C113.273977,81.5147834 113.273977,83.8446517 111.836957,85.2816708 C84.5335944,112.585034 84.5335944,156.852532 111.836957,184.155895 C113.273977,185.592914 113.273977,187.922782 111.836957,189.359801 C111.238199,189.958559 110.484433,190.307835 109.704832,190.407628 L109.704832,190.407628 L109.235004,190.437566 C108.293282,190.437566 107.35156,190.078311 106.633051,189.359801 C76.4556497,159.1824 76.4556497,110.255166 106.633051,80.0777643 C107.35156,79.3592548 108.293282,79 109.235004,79 L109.235004,79 Z M192.497508,99.8156261 L192.967336,99.845564 C193.746937,99.945357 194.500704,100.294632 195.099462,100.89339 C213.78071,119.574639 213.78071,149.862927 195.099462,168.544175 C194.500704,169.142933 193.746937,169.492209 192.967336,169.592002 L192.967336,169.592002 L192.497508,169.621939 C191.555787,169.621939 190.614065,169.262685 189.895555,168.544175 C188.458536,167.107156 188.458536,164.777288 189.895555,163.340269 C205.702765,147.533058 205.702765,121.904507 189.895555,106.097297 C188.458536,104.660278 188.458536,102.33041 189.895555,100.89339 C190.614065,100.174881 191.555787,99.8156261 192.497508,99.8156261 L192.497508,99.8156261 Z M130.05063,99.8156261 L130.520458,99.845564 C131.300059,99.945357 132.053826,100.294632 132.652583,100.89339 C134.089603,102.33041 134.089603,104.660278 132.652583,106.097297 C116.845373,121.904507 116.845373,147.533058 132.652583,163.340269 C134.089603,164.777288 134.089603,167.107156 132.652583,168.544175 C132.053826,169.142933 131.300059,169.492209 130.520458,169.592002 L130.520458,169.592002 L130.05063,169.621939 C129.108908,169.621939 128.167187,169.262685 127.448677,168.544175 C108.767429,149.862927 108.767429,119.574639 127.448677,100.89339 C128.167187,100.174881 129.108908,99.8156261 130.05063,99.8156261 L130.05063,99.8156261 Z M161.274069,119.999912 C169.403077,119.999912 175.99294,126.589775 175.99294,134.718783 C175.99294,142.585564 169.821372,149.010899 162.055773,149.417251 L162.055773,149.417251 L161.274069,149.437653 L160.492366,149.417251 C152.726767,149.010899 146.555199,142.585564 146.555199,134.718783 C146.555199,126.589775 153.145062,119.999912 161.274069,119.999912 Z" opacity=".9"/>
        <path fill="#FFF" stroke="#000" stroke-width="4" d="M142.123529,158.423853 C143.274242,157.656711 144.603081,157.365191 145.878353,157.502091 C147.238175,157.648068 148.536351,158.283002 149.494005,159.347442 L149.494005,159.347442 L187.32966,215.993654 C188.073736,217.34603 188.234783,218.207185 188.234783,219.071158 C188.234783,220.466732 187.731214,221.744585 186.896423,222.733496 C186.010306,223.783209 184.749939,224.505748 183.322188,224.699279 L183.322188,224.699279 L107.905046,224.750936 C106.367191,224.619869 105.561374,224.276194 104.842532,223.796968 C103.690152,223.028714 102.909368,221.9121 102.545932,220.680153 C102.158682,219.367482 102.247242,217.92385 102.864122,216.630148 L102.864122,216.630148 L140.597452,159.925195 C141.35818,158.975233 141.7317,158.685072 142.123529,158.423853 Z M197.313134,62 C199.374441,62.2032777 200.450924,62.7851728 201.329302,63.6635507 C216.808526,79.1427756 224.548139,99.4307792 224.548139,119.718783 C224.548139,140.006786 216.808526,160.29479 201.329302,175.774015 C200.49705,176.606266 199.470598,177.125707 198.396102,177.333742 C195.660502,177.468362 194.339605,176.816652 193.296967,175.774015 C192.187934,174.664981 191.633417,173.211414 191.633417,171.757848 C191.633417,170.304282 192.187934,168.850715 193.296967,167.741681 C206.558125,154.480524 213.188703,137.099654 213.188703,119.718783 C213.188703,102.337912 206.558125,84.9570416 193.296967,71.6958843 C192.187934,70.5868505 191.633417,69.133284 191.633417,67.6797175 C191.633417,66.2261511 192.187934,64.7725846 193.296968,63.6635502 C194.406002,62.5545166 195.859569,62 197.313134,62 Z M93.2350042,62 C95.2963106,62.2032777 96.3727929,62.7851728 97.251171,63.6635507 C98.3602048,64.7725846 98.9147217,66.2261511 98.9147217,67.6797175 C98.9147217,69.133284 98.3602048,70.5868505 97.251171,71.6958844 C83.9900138,84.9570416 77.3594352,102.337912 77.3594352,119.718783 C77.3594352,137.099654 83.9900138,154.480524 97.2511709,167.741681 C98.3602048,168.850715 98.9147217,170.304282 98.9147217,171.757848 C98.9147217,173.211414 98.3602048,174.664981 97.251171,175.774015 C96.418919,176.606267 95.3924682,177.125707 94.3179719,177.333742 C91.5823703,177.468362 90.2614735,176.816651 89.2188373,175.774015 C73.7396124,160.29479 66,140.006786 66,119.718783 C66,99.4307792 73.7396124,79.1427756 89.2188373,63.6635507 C90.3278711,62.554517 91.7814376,62 93.2350042,62 Z M176.497508,82.8156261 C178.558815,83.0189038 179.635298,83.6007989 180.513676,84.4791769 C190.244824,94.2103254 195.110398,106.964554 195.110398,119.718783 C195.110398,132.473012 190.244824,145.22724 180.513676,154.958389 C179.681424,155.79064 178.654972,156.310081 177.580476,156.518116 C174.844875,156.652735 173.523979,156.001026 172.481341,154.958389 C171.372308,153.849355 170.817791,152.395788 170.817791,150.942222 C170.817791,149.488656 171.372308,148.035089 172.481341,146.926055 C179.994422,139.412974 183.750963,129.565878 183.750963,119.718783 C183.750963,109.871687 179.994422,100.024591 172.481341,92.5115104 C171.372308,91.4024766 170.817791,89.9489101 170.817791,88.4953436 C170.817791,87.0417772 171.372308,85.5882107 172.481342,84.4791764 C173.590376,83.3701426 175.043943,82.8156261 176.497508,82.8156261 Z M114.05063,82.8156261 C116.111938,83.0189039 117.188421,83.6007997 118.066796,84.4791764 C119.175831,85.5882104 119.730348,87.041777 119.730348,88.4953436 C119.730348,89.9489103 119.175831,91.4024769 118.066797,92.5115105 C110.553716,100.024591 106.797176,109.871687 106.797176,119.718783 C106.797176,129.565878 110.553716,139.412974 118.066796,146.926055 C119.175831,148.035089 119.730348,149.488655 119.730348,150.942222 C119.730348,152.395789 119.175831,153.849355 118.066798,154.958387 C117.234547,155.79064 116.208095,156.310081 115.133598,156.518116 C112.397995,156.652735 111.0771,156.001026 110.034463,154.958389 C100.303315,145.22724 95.4377407,132.473012 95.4377407,119.718783 C95.4377407,106.964554 100.303315,94.2103254 110.034464,84.4791764 C111.143498,83.3701426 112.597063,82.8156261 114.05063,82.8156261 Z M145.274069,102.999912 C149.890858,102.999912 154.070576,104.871235 157.096096,107.896756 C160.121617,110.922276 161.99294,115.101994 161.99294,119.718783 C161.99294,124.10933 160.300425,128.104513 157.532502,131.087759 C154.735551,134.102292 150.840091,136.082552 146.48332,136.394506 L146.48332,136.394506 L145.284765,136.438613 L144.41483,136.415908 C139.981518,136.191023 136.003346,134.240104 133.140325,131.220694 C130.298591,128.223734 128.555199,124.174874 128.555199,119.718783 C128.555199,115.101994 130.426522,110.922277 133.452043,107.896756 C136.477563,104.871235 140.657281,102.999912 145.274069,102.999912 Z" opacity=".9"/>
        <path fill="#FFF" d="M136.893659,179.816932 C137.529366,178.913633 138.776978,178.696707 139.680277,179.332414 C140.48321,179.897488 140.743823,180.946041 140.345346,181.806493 L140.164794,182.119033 L120.334426,210.296694 C119.698718,211.199993 118.451106,211.416919 117.547807,210.781211 C116.744874,210.216138 116.484261,209.167585 116.882738,208.307133 L117.06329,207.994593 L136.893659,179.816932 Z"/>
    </g>
</svg>
