<svg xmlns="http://www.w3.org/2000/svg" width="144" height="144" viewBox="0 0 144 144">
  <g fill="none">
    <rect width="144" height="144" fill="#FF6C3E"/>
    <g transform="translate(33 33)">
      <path fill="#000" d="M42,0 C43.5594,0 44.8409,1.1898 44.9863,2.711 L45,3 L45,6 L48,6 C49.5594,6 50.8409,7.1898 50.9863,8.711 L51,9 L51,33 L75,33 C76.462,33 77.6796,34.0457 77.9459,35.43 L77.9863,35.711 L78,36 L78,39 L81,39 C82.462,39 83.6796,40.0457 83.9459,41.43 L83.9863,41.711 L84,42 L84,48 C84,49.5594 82.8102,50.8409 81.289,50.9863 L81,51 L50.996,51 L51,81 C51,82.462 49.9543,83.6796 48.57,83.9459 L48.289,83.9863 L48,84 L42,84 C40.4406,84 39.1591,82.8102 39.0137,81.289 L39,81 L39,78 L36,78 C34.4406,78 33.1591,76.8102 33.0137,75.289 L33,75 L32.998,51 L9,51 C7.538,51 6.3204,49.9543 6.054,48.57 L6.0137,48.289 L6,48 L6,45 L3,45 C1.538,45 0.3204,43.9543 0.054,42.57 L0.0137,42.289 L0,42 L0,36 C0,34.4406 1.1898,33.1591 2.711,33.0137 L3,33 L33,33 L33,3 C33,1.538 34.0457,0.3204 35.43,0.054 L35.711,0.0137 L36,0 L42,0 Z M76,36 C76,35.509 75.6462,35.1008 75.1798,35.0161 L75,35 L44,35 C43.509,35 43.1008,34.6462 43.0161,34.1798 L43,34 L43,3 C43,2.509 42.6462,2.1008 42.1798,2.0161 L42,2 L36,2 C35.509,2 35.1008,2.3538 35.0161,2.8202 L35,3 L35,34 C35,34.491 34.6462,34.8992 34.1798,34.9839 L34,35 L3,35 C2.509,35 2.1008,35.3538 2.0161,35.8202 L2,36 L2,42 C2,42.491 2.3538,42.8992 2.8202,42.9839 L3,43 L33.998,43 C34.4889,43 34.8972,43.3537 34.9819,43.8202 L34.998,43.9999 L35,75 C35,75.491 35.3538,75.8992 35.8202,75.9839 L36,76 L42,76 C42.491,76 42.8992,75.6462 42.9839,75.1798 L43,75.0001 L42.998,44.0001 C42.998,43.5091 43.3517,43.1008 43.8182,43.0161 L43.998,43 L75,43 C75.491,43 75.8992,42.6462 75.9839,42.1798 L76,42 L76,36 Z"/>
      <path fill="#FFF" d="M36,2 L42,2 C42.5523,2 43,2.4477 43,3 L43,34 C43,34.5523 43.4477,35 44,35 L75,35 C75.5523,35 76,35.4477 76,36 L76,42 C76,42.5523 75.5523,43 75,43 L43.998,43 C43.4457,43 42.998,43.4478 42.998,44 L43,75 C43,75.5523 42.5523,76 42,76 L36,76 C35.4477,76 35,75.5523 35,75 L34.998,44 C34.998,43.4477 34.5503,43 33.998,43 L3,43 C2.4477,43 2,42.5523 2,42 L2,36 C2,35.4477 2.4477,35 3,35 L34,35 C34.5523,35 35,34.5523 35,34 L35,3 C35,2.4477 35.4477,2 36,2 Z" opacity=".5"/>
      <line x1="6.018" x2="19.889" y1="38" y2="38" fill="#000" stroke="#FFF" stroke-linecap="round" stroke-width="2"/>
    </g>
  </g>
</svg>
