<svg width="288px" height="288px" viewBox="0 0 288 288" version="1.1"
    xmlns="http://www.w3.org/2000/svg">
    <rect id="Background" fill="#FF6C3E" x="0" y="0" width="288" height="288"></rect>
    <g id="Input---SFX" transform="translate(33.000000, 80.000000)">
        <path d="M89.8470812,4.74902439 C90.7104915,5.33089484 91.2174829,6.09904064 91.319453,6.87966882 L91.3127821,7.6650979 C87.9487222,37.6458286 87.9239444,59.7511445 91.2718034,73.4491046 C92.5326111,78.6120046 94.0955171,83.7797055 95.9605214,88.9550878 L99.9268718,99.4325966 L101.32491,90.0746603 C102.040607,85.7221542 102.912594,81.3081963 103.936107,76.8635127 L105.591453,70.1412767 C109.374829,55.7241402 116.466038,40.1759089 126.872705,23.5100255 L129.806013,18.9174738 C130.945791,17.1709022 133.917218,16.4258008 136.313038,17.433032 C137.672004,18.0033802 138.507778,19.00293 138.635479,20.0351259 L138.637385,20.7158951 C137.33941,35.6544106 138.772709,49.0979224 142.947765,60.8227079 C144.149487,64.1996689 145.465568,67.5007755 146.896009,70.7260277 L151.518017,80.6437502 L152.725457,73.3607678 C153.667013,68.1412171 154.989765,63.4996961 156.692761,59.4515677 L157.778218,57.0539926 C161.632115,49.1305686 167.292885,41.2023437 174.744325,33.3192474 L178.074077,29.9163615 C179.685585,28.3243793 182.825692,28.0632097 184.898449,29.413226 C185.751376,29.9691715 186.273615,30.709472 186.411799,31.4689762 L186.44706,32.2313609 C186.117325,38.0846319 186.80062,43.2043237 188.502662,47.3014214 C189.72535,50.2434198 191.829556,53.5214821 194.793359,57.119285 L197.363577,60.116974 L205.007521,60.1342573 C207.661603,60.1409785 209.65812,61.7473634 209.65812,63.4872137 C209.65812,64.9802971 208.152393,66.412889 205.942406,66.7345501 L204.879821,66.8036832 L194.772393,66.7614352 C193.989034,66.771037 193.329564,66.6538948 192.746333,66.4157696 C192.159291,66.1766842 191.58559,65.7868502 191.023325,65.232825 C185.37685,59.2710534 181.56965,53.9141966 179.58838,49.143051 C179.305342,48.4613216 179.046128,47.7603885 178.810739,47.0383315 L177.490846,42.4784259 L174.417449,46.4756647 C172.023534,49.6730716 169.95459,52.8551156 168.196321,56.0419605 L166.562893,59.1894379 C162.77094,66.9861178 160.69056,77.69215 160.304598,91.2249587 L160.241701,94.9600677 C160.232171,96.7181614 158.224218,98.3149445 155.573949,98.3053426 C154.101577,98.3005417 152.736893,97.7791628 151.867765,96.9351626 L151.330278,96.294721 C144.144722,86.0390143 138.309556,74.6963813 133.936278,62.4146901 C132.174197,57.4659108 130.873363,52.2453998 130.033778,46.7483564 L128.768205,37.1590162 L124.702744,45.2216666 C120.971782,52.8215092 118.043239,60.1294563 115.908538,67.1627914 L114.731594,71.3184602 C111.277953,84.4806385 109.165171,97.3182753 108.383718,109.868818 L108.105444,116.086958 C108.057795,117.865215 106.005051,119.441835 103.350017,119.397652 C101.72612,119.36694 100.264231,118.714016 99.454188,117.725029 L99.0424957,117.104751 C91.2556026,102.983351 85.5824444,88.7486486 82.1135556,74.5542744 C79.6891453,64.6317509 78.939141,50.7302322 79.8740256,32.769063 L80.6783504,19.4753396 L76.4384915,25.5628951 C73.3898718,30.1314423 70.9311538,34.7873661 69.0394658,39.5633126 L67.7443504,43.1179073 C64.1363248,53.9737279 61.5136923,65.9308775 59.8592991,79.0335246 L59.2122179,84.693799 L58.5613248,91.0444444 C58.4984274,91.6532 57.5606838,92.290761 56.3408547,92.2101057 C55.6222991,92.1630567 55.0114316,91.8644401 54.7036154,91.4678848 L50.5171239,86.0803022 C44.8048932,78.7291468 40.2781838,71.5479437 36.9331838,64.5338123 C34.9414316,60.3579797 33.4986026,54.9531138 32.6037436,48.2692851 L31.8099017,41.9109582 L28.5859316,47.1372302 C26.310188,51.0432517 24.6948675,55.676131 23.7170983,61.0531517 L23.2882521,63.7551045 L22.9461282,65.6216988 C22.861312,65.9587228 22.7297991,66.2141313 22.6202051,66.3168708 C22.4553376,66.4714601 21.7243932,66.7623954 21.7577479,66.7614352 L8.45303419,66.8209665 C6.11439316,66.8228868 4.22079915,65.5448843 3.87009829,64.0076325 L3.79957692,63.2711727 C3.81196581,61.750244 5.80848291,60.1467396 8.45970513,60.1438591 L14.5092949,60.138098 L15.1306453,57.1941792 C16.0083504,53.4552295 17.2215085,50.0216177 18.7615427,46.9269503 L20.0080556,44.6157916 C22.4534316,40.4178748 25.7784188,36.2650866 29.9534744,32.2169582 L32.5961197,29.7684934 C34.3191282,28.2398833 37.4773419,28.1131392 39.4452692,29.5409302 C40.1581068,30.0575083 40.6050598,30.7075517 40.7546795,31.3777589 L40.8232949,32.0498865 C40.9957863,45.666231 42.6454145,55.9584246 45.7359658,62.4396548 C46.3697051,63.7695073 47.049188,65.1051208 47.7744145,66.4484158 L51.2671282,72.52925 L52.298265,67.2530485 C53.5971923,59.9383801 55.2163248,53.0337095 57.1613803,46.5044701 L58.6899786,41.6507488 C62.5924786,29.9057995 69.6436624,18.7772871 79.831141,8.31418111 L83.0122265,5.16574349 C84.6599487,3.59200477 87.8076795,3.37308322 89.8470812,4.74902439 Z" id="Icon-Fill" fill-opacity="0.6" fill="#FFFFFF" fill-rule="nonzero"></path>
        <path d="M91.9674872,1.55641839 C93.6333162,2.67983163 94.7473632,4.30830074 95.0751923,6.33236493 L95.114265,6.61081778 L95.112359,7.86193526 C95.0208718,8.68385127 94.9312906,9.49904601 94.8445684,10.3084796 C97.1651026,9.23019498 100.172744,9.37038159 102.343658,10.8336993 C103.654974,11.7180272 104.468829,12.9691447 104.645132,14.3105193 L104.654662,15.3283125 C102.268372,36.683726 101.574594,53.8834708 102.538068,66.8516923 C106.479641,52.9636162 113.314496,38.169128 123.044538,22.432701 L123.656359,21.4485142 L126.610632,16.8233163 C128.817761,13.4415543 133.765692,12.2009989 137.780645,13.8880391 C140.255564,14.9279165 141.992868,16.9414187 142.395983,19.4955035 L142.432197,19.761474 L142.441726,20.8464799 C142.368346,21.705843 142.30259,22.5604052 142.247316,23.4082462 C144.113274,22.574808 146.449056,22.4874314 148.482739,23.3419936 C150.457338,24.1715911 151.747688,25.7376483 151.963064,27.4784587 L151.979265,28.3618264 C151.062487,38.9987254 151.519923,48.7484161 153.336325,57.6137788 L154.332201,55.4120809 C158.26615,47.3215852 163.921201,39.3242272 171.308791,31.3902413 L172.00638,30.6461 L175.381876,27.1971253 C178.310419,24.303136 183.422265,23.8777753 186.968346,26.1879738 C188.592244,27.2460946 189.715821,28.7795057 190.131325,30.709472 L190.188504,31.0023276 L190.252355,32.2140776 C190.201846,33.1425739 190.177068,34.0422646 190.178021,34.9150703 C192.428987,33.9606491 195.267949,34.1133181 197.369295,35.4815778 C198.656786,36.3207771 199.487795,37.5114031 199.722231,38.8047686 L199.785128,39.7908758 C199.468735,45.6479876 200.130111,50.4681025 201.696829,54.2406586 C201.971291,54.9003038 202.295308,55.5829934 202.669833,56.2877671 L205.017051,56.2935282 C209.310278,56.3040902 212.967859,59.0252467 213.422436,62.7113864 L213.446261,62.9379894 L213.470085,63.4872137 C213.470085,64.3331343 213.301406,65.1396873 212.988825,65.8876693 L216.448184,65.8953508 C220.069551,65.9039924 223,68.2622 223,71.1686717 C223,73.7371593 220.692808,75.8735648 217.650859,76.317169 L216.448184,76.401665 L206.200667,76.3632577 C205.203838,76.3767003 204.292778,76.2144295 203.466534,75.8774055 C202.640291,75.5403815 201.860744,75.0103609 201.12694,74.2883039 C199.944278,73.0391068 198.836902,71.8148744 197.806718,70.6127262 L194.7905,70.601204 C193.546846,70.6184873 192.383244,70.4120481 191.31494,69.9761254 C190.250449,69.5411628 189.264103,68.8719158 188.312064,67.9328575 C186.314594,65.8242973 184.531547,63.7819896 182.960064,61.8020938 C182.376833,62.7536344 181.823145,63.7051751 181.298047,64.6567157 L179.687491,67.7600247 C176.072795,75.1956761 174.025769,85.6165341 173.645526,98.9611471 L173.583581,102.673212 C173.56738,105.576803 170.621684,107.920608 167.003175,107.907165 C165.040013,107.900444 163.206457,107.188949 161.98091,105.999283 L161.322393,105.229217 C160.481855,104.030909 159.659423,102.819159 158.857004,101.595887 C157.838256,101.955956 156.72135,102.150873 155.560607,102.146072 C153.240073,102.13839 151.023415,101.328957 149.328996,99.7869039 L149.101231,99.571823 L148.330261,98.6567693 C141.617389,89.0895133 136.109098,78.7493106 131.808248,67.6419223 C130.820949,70.2680208 129.940385,72.8566721 129.166556,75.405956 L128.000094,79.5270583 C124.586479,92.5365676 122.495615,105.250341 121.721786,117.670298 L121.445419,123.854832 C121.367274,126.758423 118.371068,129.05998 114.753513,128.998808 C112.575927,128.959161 110.590846,128.05851 109.41962,126.627839 L108.905004,125.870255 C108.292231,124.760284 107.692799,123.650313 107.106709,122.541303 C105.945013,123.009872 104.642274,123.259519 103.284261,123.235515 C100.690218,123.190386 98.2572308,122.146668 96.6056966,120.26183 L96.4112863,120.031387 L95.8032778,119.122094 C87.7638419,104.55997 81.9648889,90.0074476 78.4121368,75.4722086 C77.7469487,72.7472114 77.2027906,69.7524029 76.7806154,66.4839425 C75.2910897,72.9536505 74.0922265,79.778626 73.1859316,86.9569486 L72.5417094,92.5951388 L71.8927222,98.9237 C71.7145128,100.65971 69.8161538,101.951155 67.6528632,101.808088 C66.4139744,101.726472 65.2970684,101.179168 64.6395043,100.333248 L60.4520598,94.9456649 L60.3634316,94.8294829 C59.2131709,95.688846 57.6855256,96.1478131 56.0921239,96.0431532 C54.4262949,95.9327323 52.8814957,95.2135558 51.8665598,94.0363723 L51.7026453,93.8356942 L47.5161538,88.4481116 C43.2143504,82.9126609 39.5567692,77.454985 36.5443632,72.0741236 L36.2565598,73.6507429 C36.0659615,74.4352118 35.7648162,75.0199628 35.3531239,75.405956 C34.7346325,75.9839857 33.5119444,76.3565365 33.2393889,76.3632577 L19.8975085,76.422789 C16.6830684,76.4256696 14.0070684,74.5696373 13.4486154,72.1192522 L13.3418803,71.1686717 C13.3418803,70.9900778 13.3533162,70.8134043 13.3742821,70.6396113 L8.46351709,70.6616955 C4.54291026,70.6655362 1.09117521,68.3947052 0.17725641,64.8938807 L0.119123932,64.6538351 L0,63.4872137 C0,59.489975 3.72524359,56.4231528 8.20144444,56.3069708 L8.45589316,56.3031301 L11.4206496,56.297369 L11.8418718,54.6324129 C12.5213547,52.0840892 13.3514103,49.6749919 14.3406154,47.3926387 L14.6760684,46.6360151 L15.382235,45.1506132 L16.6887863,42.7280733 C19.2294615,38.3650052 22.5735085,34.1344421 26.7399872,30.0094992 L27.3413248,29.4199473 L30.0459145,26.9138716 C33.1459957,24.1639096 38.2740427,23.9574704 41.6733632,26.4241786 C43.0332821,27.411246 43.9948504,28.7487799 44.4313205,30.4156563 L44.5075598,30.7315562 L44.6219188,31.7992789 C44.6362137,32.8391563 44.6581325,33.8569495 44.6895812,34.8536186 C47.0301282,33.9212817 49.9405641,34.1728494 51.9952137,35.6640125 C53.0797179,36.4513619 53.7963675,37.4998809 54.0498632,38.6386571 L54.1518333,39.5066619 C54.1680342,40.7318544 54.1966239,41.9272813 54.2356966,43.0929426 L55.0657521,40.4601228 C59.0873761,28.3570255 66.2405299,16.9519807 76.5023419,6.25362998 L77.1341752,5.59974587 L80.3657692,2.40233896 C83.3486325,-0.446521794 88.4671496,-0.803709593 91.9674872,1.55641839 Z M89.8470812,4.74902439 C87.8076795,3.37308322 84.6599487,3.59200477 83.0122265,5.16574349 L79.831141,8.31418111 C69.6436624,18.7772871 62.5924786,29.9057995 58.6899786,41.6507488 L57.1613803,46.5044701 C55.2163248,53.0337095 53.5971923,59.9383801 52.298265,67.2530485 L51.2671282,72.52925 L47.7744145,66.4484158 C47.049188,65.1051208 46.3697051,63.7695073 45.7359658,62.4396548 C42.6454145,55.9584246 40.9957863,45.666231 40.8232949,32.0498865 L40.7546795,31.3777589 C40.6050598,30.7075517 40.1581068,30.0575083 39.4452692,29.5409302 C37.4773419,28.1131392 34.3191282,28.2398833 32.5961197,29.7684934 L29.9534744,32.2169582 C25.7784188,36.2650866 22.4534316,40.4178748 20.0080556,44.6157916 L18.7615427,46.9269503 C17.2215085,50.0216177 16.0083504,53.4552295 15.1306453,57.1941792 L14.5092949,60.138098 L8.45970513,60.1438591 C5.80848291,60.1467396 3.81196581,61.750244 3.79957692,63.2711727 L3.87009829,64.0076325 C4.22079915,65.5448843 6.11439316,66.8228868 8.45303419,66.8209665 L21.7577479,66.7614352 C21.7243932,66.7623954 22.4553376,66.4714601 22.6202051,66.3168708 C22.7297991,66.2141313 22.861312,65.9587228 22.9461282,65.6216988 L23.2882521,63.7551045 L23.7170983,61.0531517 C24.6948675,55.676131 26.310188,51.0432517 28.5859316,47.1372302 L31.8099017,41.9109582 L32.6037436,48.2692851 C33.4986026,54.9531138 34.9414316,60.3579797 36.9331838,64.5338123 C40.2781838,71.5479437 44.8048932,78.7291468 50.5171239,86.0803022 L54.7036154,91.4678848 C55.0114316,91.8644401 55.6222991,92.1630567 56.3408547,92.2101057 C57.5606838,92.290761 58.4984274,91.6532 58.5613248,91.0444444 L59.2122179,84.693799 L59.8592991,79.0335246 C61.5136923,65.9308775 64.1363248,53.9737279 67.7443504,43.1179073 L69.0394658,39.5633126 C70.9311538,34.7873661 73.3898718,30.1314423 76.4384915,25.5628951 L80.6783504,19.4753396 L79.8740256,32.769063 C78.939141,50.7302322 79.6891453,64.6317509 82.1135556,74.5542744 C85.5824444,88.7486486 91.2556026,102.983351 99.0424957,117.104751 L99.454188,117.725029 C100.264231,118.714016 101.72612,119.36694 103.350017,119.397652 C106.005051,119.441835 108.057795,117.865215 108.105444,116.086958 L108.383718,109.868818 C109.165171,97.3182753 111.277953,84.4806385 114.731594,71.3184602 L115.908538,67.1627914 C118.043239,60.1294563 120.971782,52.8215092 124.702744,45.2216666 L128.768205,37.1590162 L130.033778,46.7483564 C130.873363,52.2453998 132.174197,57.4659108 133.936278,62.4146901 C138.309556,74.6963813 144.144722,86.0390143 151.330278,96.294721 L151.867765,96.9351626 C152.736893,97.7791628 154.101577,98.3005417 155.573949,98.3053426 C158.224218,98.3149445 160.232171,96.7181614 160.241701,94.9600677 L160.304598,91.2249587 C160.69056,77.69215 162.77094,66.9861178 166.562893,59.1894379 L168.196321,56.0419605 C169.95459,52.8551156 172.023534,49.6730716 174.417449,46.4756647 L177.490846,42.4784259 L178.810739,47.0383315 C179.046128,47.7603885 179.305342,48.4613216 179.58838,49.143051 C181.56965,53.9141966 185.37685,59.2710534 191.023325,65.232825 C191.58559,65.7868502 192.159291,66.1766842 192.746333,66.4157696 C193.329564,66.6538948 193.989034,66.771037 194.772393,66.7614352 L204.879821,66.8036832 L205.942406,66.7345501 C208.152393,66.412889 209.65812,64.9802971 209.65812,63.4872137 C209.65812,61.7473634 207.661603,60.1409785 205.007521,60.1342573 L197.363577,60.116974 L194.793359,57.119285 C191.829556,53.5214821 189.72535,50.2434198 188.502662,47.3014214 C186.80062,43.2043237 186.117325,38.0846319 186.44706,32.2313609 L186.411799,31.4689762 C186.273615,30.709472 185.751376,29.9691715 184.898449,29.413226 C182.825692,28.0632097 179.685585,28.3243793 178.074077,29.9163615 L174.744325,33.3192474 C167.292885,41.2023437 161.632115,49.1305686 157.778218,57.0539926 L156.692761,59.4515677 C154.989765,63.4996961 153.667013,68.1412171 152.725457,73.3607678 L151.518017,80.6437502 L146.896009,70.7260277 C145.465568,67.5007755 144.149487,64.1996689 142.947765,60.8227079 C138.772709,49.0979224 137.33941,35.6544106 138.637385,20.7158951 L138.635479,20.0351259 C138.507778,19.00293 137.672004,18.0033802 136.313038,17.433032 C133.917218,16.4258008 130.945791,17.1709022 129.806013,18.9174738 L126.872705,23.5100255 C116.466038,40.1759089 109.374829,55.7241402 105.591453,70.1412767 L103.936107,76.8635127 C102.912594,81.3081963 102.040607,85.7221542 101.32491,90.0746603 L99.9268718,99.4325966 L95.9605214,88.9550878 C94.0955171,83.7797055 92.5326111,78.6120046 91.2718034,73.4491046 C87.9239444,59.7511445 87.9487222,37.6458286 91.3127821,7.6650979 L91.319453,6.87966882 C91.2174829,6.09904064 90.7104915,5.33089484 89.8470812,4.74902439 Z" id="shadow-with-outline" fill="#000000"></path>
        <path d="M84.8343462,8.67809018 C85.7530299,8.15959176 86.9147265,8.48989446 87.4293419,9.41551015 C87.9430043,10.3401657 87.6161282,11.5106278 86.6974444,12.0291263 C78.6732564,16.5563856 73.1611538,22.8062119 70.0953803,30.8275744 C69.7170427,31.8175224 68.6144316,32.3100959 67.6318974,31.9298637 C66.6493632,31.5486713 66.1595256,30.4367803 66.5378632,29.4468324 C69.9295598,20.5737881 76.0496709,13.634551 84.8343462,8.67809018 Z" id="Highlight" fill="#FFFFFF" fill-rule="nonzero"></path>
    </g>
</svg>