<svg xmlns="http://www.w3.org/2000/svg" xmlns:xlink="http://www.w3.org/1999/xlink" width="144" height="144" viewBox="0 0 144 144">
  <defs>
    <path id="wave-aux1-off-a" d="M30,0 L30.32875,0.01065 C32.89115,0.17695 34.92745,2.27355 34.9981,4.86095 L35,5 L35,68 L34.98935,68.32875 C34.82305,70.89115 32.72645,72.92745 30.13905,72.9981 L30,73 L22,73 L21.82025,73.0161 C21.37965,73.0961 21.03965,73.4647 21.00325,73.919 L21,74 L21,86 L21.0161,86.17975 C21.0961,86.62035 21.4647,86.96035 21.919,86.99675 L22,87 L36,87 L36.23325,87.0135 C37.2279,87.129 38,87.9743 38,89 C38,90.0711 37.158,90.9455 36.0998,90.99755 L36,91 L2,91 L1.76675,90.9865 C0.7721,90.871 0,90.0257 0,89 C0,87.9289 0.842,87.0545 1.9002,87.00245 L2,87 L16,87 L16.17975,86.9839 C16.62035,86.9039 16.96035,86.5353 16.99675,86.081 L17,86 L17,74 L16.9839,73.82025 C16.9039,73.37965 16.5353,73.03965 16.081,73.00325 L16,73 L8,73 L7.67125,72.98935 C5.10885,72.82305 3.07255,70.72645 3.0019,68.13905 L3,68 L3,5 L3.01065,4.67125 C3.17695,2.10885 5.2735,0.07255 7.86095,0.0019 L8,0 L30,0 Z M19,4 C15.6863,4 13,6.6863 13,10 C13,13.3137 15.6863,16 19,16 C22.3137,16 25,13.3137 25,10 C25,6.6863 22.3137,4 19,4 Z"/>
  </defs>
  <g fill="none" fill-rule="evenodd">
    <rect width="144" height="144" fill="#23DE63" fill-rule="nonzero"/>
    <polygon fill="#1551FF" fill-rule="nonzero" points="0 0 144 0 144 144 0 144" opacity="0"/>
    <g fill-rule="nonzero" transform="translate(45 25)">
      <path fill="#000" d="M39,0 C40.852,0 42.5361,0.71925 43.7881,1.89365 L43.899,2 L43.8987,1.9997 L47,2 C50.73715,2 53.79025,4.92855 53.98965,8.61595 L54,9 L53.9995,48.9895 L54,49 L54,50.9765 L54.0022,50.8836 C54.0597,49.37725 55.2278,48.15545 56.7111,48.01375 L57,48 L59,48 C60.5594,48 61.8409,49.1898 61.98625,50.7111 L62,51 L62,59 C62,60.5594 60.8102,61.8409 59.2889,61.98625 L59,62 L57,62 C55.4406,62 54.1591,60.8102 54.01375,59.2889 L54,59 L54,73 C54,76.73715 51.07145,79.79025 47.38405,79.98965 L47,80 L39,80 L38.9998,87.9997 L31,88 L44,88 C45.43715,88 46.69725,88.7579 47.4025,89.8958 L47.46475,89.9998 L52,90 C54.0033,90 55.6626,91.47265 55.9545,93.39445 L55.989,93.70145 L56,94 C56,96.1087 54.36825,97.83635 52.2985,97.989 L52,98 L18,98 C16.5195,98 15.2268,97.19565 14.5352,96.0001 L10,96 C7.79085,96 6,94.20915 6,92 C6,89.8913 7.63175,88.16365 9.7015,88.011 L10,88 L23,88 L23,80 C21.09275,80 19.3637,79.23725 18.10115,78.00015 L15,78 C11.39175,78 8.4211,75.26995 8.04105,71.76275 L8.01035,71.38405 L8,71 L8,57 C8,58.5594 6.8102,59.8409 5.2889,59.98625 L5,60 L3,60 C1.4406,60 0.1591,58.8102 0.01375,57.2889 L0,57 L0,49 C0,47.4406 1.1898,46.1591 2.7111,46.01375 L3,46 L5,46 C6.5594,46 7.8409,47.1898 7.98625,48.7111 L8,48.999 L8,7 C8,3.26285 10.92855,0.20975 14.61595,0.01035 L15,0 L39,0 Z M39,2 L15,2 L14.86095,2.0019 C12.27355,2.07255 10.17695,4.10885 10.01065,6.67125 L10.01065,6.67125 L10,7 L10,71 L10.0019,71.13905 C10.07255,73.72645 12.10885,75.82305 14.67125,75.98935 L14.67125,75.98935 L15,76 L24,76 L24.081,76.00325 C24.5353,76.03965 24.9039,76.37965 24.9839,76.82025 L24.9839,76.82025 L25,77 L25,89 L24.99675,89.081 C24.96035,89.5353 24.62035,89.9039 24.17975,89.9839 L24.17975,89.9839 L24,90 L10,90 L9.9002,90.00245 C8.842,90.0545 8,90.9289 8,92 C8,93.0257 8.7721,93.871 9.76675,93.9865 L9.76675,93.9865 L10,94 L44,94 L44.0998,93.99755 C45.158,93.9455 46,93.0711 46,92 C46,90.9743 45.2279,90.129 44.23325,90.0135 L44.23325,90.0135 L44,90 L30,90 L29.919,89.99675 C29.4647,89.96035 29.0961,89.62035 29.0161,89.17975 L29.0161,89.17975 L29,89 L29,77 L29.00325,76.919 C29.03965,76.4647 29.37965,76.0961 29.82025,76.0161 L29.82025,76.0161 L30,76 L39,76 L39.13905,75.9981 C41.72645,75.92745 43.82305,73.89115 43.98935,71.32875 L43.98935,71.32875 L44,71 L44,7 L43.9981,6.86095 C43.92745,4.27355 41.89115,2.17695 39.32875,2.01065 L39.32875,2.01065 L39,2 Z" opacity=".901"/>
      <path fill="#FFF" d="M39,2 L39.32875,2.01065 C41.89115,2.17695 43.92745,4.27355 43.9981,6.86095 L44,7 L44,71 L43.98935,71.32875 C43.82305,73.89115 41.72645,75.92745 39.13905,75.9981 L39,76 L30,76 L29.82025,76.0161 C29.37965,76.0961 29.03965,76.4647 29.00325,76.919 L29,77 L29,89 L29.0161,89.17975 C29.0961,89.62035 29.4647,89.96035 29.919,89.99675 L30,90 L44,90 L44.23325,90.0135 C45.2279,90.129 46,90.9743 46,92 C46,93.0711 45.158,93.9455 44.0998,93.99755 L44,94 L10,94 L9.76675,93.9865 C8.7721,93.871 8,93.0257 8,92 C8,90.9289 8.842,90.0545 9.9002,90.00245 L10,90 L24,90 L24.17975,89.9839 C24.62035,89.9039 24.96035,89.5353 24.99675,89.081 L25,89 L25,77 L24.9839,76.82025 C24.9039,76.37965 24.5353,76.03965 24.081,76.00325 L24,76 L15,76 L14.67125,75.98935 C12.10885,75.82305 10.07255,73.72645 10.0019,71.13905 L10,71 L10,7 L10.01065,6.67125 C10.17695,4.10885 12.27355,2.07255 14.86095,2.0019 L15,2 L39,2 Z M5,48 L5.17975,48.0161 C5.62035,48.0961 5.96035,48.4647 5.99675,48.919 L6,49 L6,57 L5.9839,57.17975 C5.9039,57.62035 5.5353,57.96035 5.081,57.99675 L5,58 L3,58 L2.82025,57.9839 C2.37965,57.9039 2.03965,57.5353 2.00325,57.081 L2,57 L2,49 L2.0161,48.82025 C2.0961,48.37965 2.4647,48.03965 2.919,48.00325 L3,48 L5,48 Z M51,48 L51.17975,48.0161 C51.62035,48.0961 51.96035,48.4647 51.99675,48.919 L52,49 L52,57 L51.9839,57.17975 C51.9039,57.62035 51.5353,57.96035 51.081,57.99675 L51,58 L49,58 L48.82025,57.9839 C48.37965,57.9039 48.03965,57.5353 48.00325,57.081 L48,57 L48,49 L48.0161,48.82025 C48.0961,48.37965 48.4647,48.03965 48.919,48.00325 L49,48 L51,48 Z" opacity=".602"/>
      <path fill="#FFF" d="M13,62 C13.4909,62 13.8992,62.35375 13.9839,62.82025 L14,63 L14,69.7347 C14,70.9858 15.0142,72 16.2653,72 C16.81755,72 17.2653,72.4477 17.2653,73 C17.2653,73.5523 16.81755,74 16.2653,74 C14.01205,74 12.1669,72.2528 12.0107,70.03935 L12,69.7347 L12,63 C12,62.4477 12.4477,62 13,62 Z"/>
      <path fill="#000" d="M27 63C29.20915 63 31 64.79085 31 67 31 69.20915 29.20915 71 27 71 24.79085 71 23 69.20915 23 67 23 64.79085 24.79085 63 27 63zM44 52.5L44 54.5 10 54.5 10 52.5 44 52.5zM27.033 8.8C27.89615 8.8 28.72695 9.0565 29.4346 9.5415 30.1258 10.01525 30.6553 10.674 30.96515 11.44585L30.87405 11.67915 30.15725 12.09125 29.86375 11.96695C29.7732471 11.97108 29.6826029 11.97108 29.5921 11.96695 29.1637 10.7697 28.01575 9.9647 26.73605 9.9647 25.06505 9.9647 23.70595 11.3128 23.70595 12.9687 23.70595 14.6245 25.06505 15.9726 26.73605 15.9726 27.3857 15.9726 28.00465 15.7711 28.5275 15.3895 29.0398 15.0155 29.41495 14.5038 29.60575 13.9389L29.6045 13.94115 29.561 14.04865 26.089 12.07865 26.089 13.82265 27.33905 13.19975 28.0338 13.5937 28.03445 13.9413 25.8139 15.0982 25.0984 14.6939 24.99685 14.51975 24.99685 11.3665 25.0976 11.19285 26.00985 10.7842 30.80215 13.5057 30.9002 13.7152C30.7271 14.6712 30.2197 15.5438 29.4699 16.17445 29.00455 16.847 28.03375 17.2 27.03305 17.2 25.9032 17.2 24.83985 16.76315 24.0407 15.9705 23.2412 15.17745 22.8004 14.1218 22.8004 13 22.8004 11.87815 23.2412 10.82255 24.0407 10.0296 24.83985 9.2369 25.9032 8.8 27.03305 8.8L27.033 8.8z"/>
    </g>
    <g opacity=".802" transform="translate(53 28)">
      <mask id="wave-aux1-off-b" fill="#fff">
        <use xlink:href="#wave-aux1-off-a"/>
      </mask>
      <g mask="url(#wave-aux1-off-b)">
        <g transform="translate(2 -5.5)">
          <g fill="#000" fill-rule="nonzero">
            <circle cx="31.25" cy="1.25" r="1.25"/>
            <circle cx="26.25" cy="1.25" r="1.25"/>
            <circle cx="21.25" cy="1.25" r="1.25"/>
            <circle cx="16.25" cy="1.25" r="1.25"/>
            <circle cx="11.25" cy="1.25" r="1.25"/>
            <circle cx="6.25" cy="1.25" r="1.25"/>
            <circle cx="1.25" cy="1.25" r="1.25"/>
          </g>
          <g fill="#000" fill-rule="nonzero" transform="translate(0 5.5)">
            <circle cx="31.25" cy="1.25" r="1.25"/>
            <circle cx="26.25" cy="1.25" r="1.25"/>
            <circle cx="21.25" cy="1.25" r="1.25"/>
            <circle cx="16.25" cy="1.25" r="1.25"/>
            <circle cx="11.25" cy="1.25" r="1.25"/>
            <circle cx="6.25" cy="1.25" r="1.25"/>
            <circle cx="1.25" cy="1.25" r="1.25"/>
          </g>
          <g fill="#000" fill-rule="nonzero" transform="translate(0 11)">
            <circle cx="31.25" cy="1.25" r="1.25"/>
            <circle cx="26.25" cy="1.25" r="1.25"/>
            <circle cx="21.25" cy="1.25" r="1.25"/>
            <circle cx="16.25" cy="1.25" r="1.25"/>
            <circle cx="11.25" cy="1.25" r="1.25"/>
            <circle cx="6.25" cy="1.25" r="1.25"/>
            <circle cx="1.25" cy="1.25" r="1.25"/>
          </g>
          <g fill="#000" fill-rule="nonzero" transform="translate(0 16.5)">
            <circle cx="31.25" cy="1.25" r="1.25"/>
            <circle cx="26.25" cy="1.25" r="1.25"/>
            <circle cx="21.25" cy="1.25" r="1.25"/>
            <circle cx="16.25" cy="1.25" r="1.25"/>
            <circle cx="11.25" cy="1.25" r="1.25"/>
            <circle cx="6.25" cy="1.25" r="1.25"/>
            <circle cx="1.25" cy="1.25" r="1.25"/>
          </g>
          <g fill="#000" fill-rule="nonzero" transform="translate(0 22.5)">
            <circle cx="31.25" cy="1.25" r="1.25"/>
            <circle cx="26.25" cy="1.25" r="1.25"/>
            <circle cx="21.25" cy="1.25" r="1.25"/>
            <circle cx="16.25" cy="1.25" r="1.25"/>
            <circle cx="11.25" cy="1.25" r="1.25"/>
            <circle cx="6.25" cy="1.25" r="1.25"/>
            <circle cx="1.25" cy="1.25" r="1.25"/>
          </g>
          <g fill="#000" fill-rule="nonzero" transform="translate(0 28)">
            <circle cx="31.25" cy="1.25" r="1.25"/>
            <circle cx="26.25" cy="1.25" r="1.25"/>
            <circle cx="21.25" cy="1.25" r="1.25"/>
            <circle cx="16.25" cy="1.25" r="1.25"/>
            <circle cx="11.25" cy="1.25" r="1.25"/>
            <circle cx="6.25" cy="1.25" r="1.25"/>
            <circle cx="1.25" cy="1.25" r="1.25"/>
          </g>
          <g fill="#000" fill-rule="nonzero" transform="translate(0 34)">
            <circle cx="31.25" cy="1.25" r="1.25"/>
            <circle cx="26.25" cy="1.25" r="1.25"/>
            <circle cx="21.25" cy="1.25" r="1.25"/>
            <circle cx="16.25" cy="1.25" r="1.25"/>
            <circle cx="11.25" cy="1.25" r="1.25"/>
            <circle cx="6.25" cy="1.25" r="1.25"/>
            <circle cx="1.25" cy="1.25" r="1.25"/>
          </g>
          <g fill="#000" fill-rule="nonzero" transform="translate(0 39.5)">
            <circle cx="31.25" cy="1.25" r="1.25"/>
            <circle cx="26.25" cy="1.25" r="1.25"/>
            <circle cx="21.25" cy="1.25" r="1.25"/>
            <circle cx="16.25" cy="1.25" r="1.25"/>
            <circle cx="11.25" cy="1.25" r="1.25"/>
            <circle cx="6.25" cy="1.25" r="1.25"/>
            <circle cx="1.25" cy="1.25" r="1.25"/>
          </g>
          <g fill="#000" fill-rule="nonzero" transform="translate(0 45)">
            <circle cx="31.25" cy="1.25" r="1.25"/>
            <circle cx="26.25" cy="1.25" r="1.25"/>
            <circle cx="21.25" cy="1.25" r="1.25"/>
            <circle cx="16.25" cy="1.25" r="1.25"/>
            <circle cx="11.25" cy="1.25" r="1.25"/>
            <circle cx="6.25" cy="1.25" r="1.25"/>
            <circle cx="1.25" cy="1.25" r="1.25"/>
          </g>
          <g fill="#000" fill-rule="nonzero" transform="translate(0 50.5)">
            <circle cx="31.25" cy="1.25" r="1.25"/>
            <circle cx="26.25" cy="1.25" r="1.25"/>
            <circle cx="21.25" cy="1.25" r="1.25"/>
            <circle cx="16.25" cy="1.25" r="1.25"/>
            <circle cx="11.25" cy="1.25" r="1.25"/>
            <circle cx="6.25" cy="1.25" r="1.25"/>
            <circle cx="1.25" cy="1.25" r="1.25"/>
          </g>
          <g fill="#000" fill-rule="nonzero" transform="translate(2.5 2.8)">
            <circle cx="31.25" cy="1.25" r="1.25"/>
            <circle cx="26.25" cy="1.25" r="1.25"/>
            <circle cx="21.25" cy="1.25" r="1.25"/>
            <circle cx="16.25" cy="1.25" r="1.25"/>
            <circle cx="11.25" cy="1.25" r="1.25"/>
            <circle cx="6.25" cy="1.25" r="1.25"/>
            <circle cx="1.25" cy="1.25" r="1.25"/>
          </g>
          <g fill="#000" fill-rule="nonzero" transform="translate(2.5 8.3)">
            <circle cx="31.25" cy="1.25" r="1.25"/>
            <circle cx="26.25" cy="1.25" r="1.25"/>
            <circle cx="21.25" cy="1.25" r="1.25"/>
            <circle cx="16.25" cy="1.25" r="1.25"/>
            <circle cx="11.25" cy="1.25" r="1.25"/>
            <circle cx="6.25" cy="1.25" r="1.25"/>
            <circle cx="1.25" cy="1.25" r="1.25"/>
          </g>
          <g fill="#000" fill-rule="nonzero" transform="translate(2.5 13.8)">
            <circle cx="31.25" cy="1.25" r="1.25"/>
            <circle cx="26.25" cy="1.25" r="1.25"/>
            <circle cx="21.25" cy="1.25" r="1.25"/>
            <circle cx="16.25" cy="1.25" r="1.25"/>
            <circle cx="11.25" cy="1.25" r="1.25"/>
            <circle cx="6.25" cy="1.25" r="1.25"/>
            <circle cx="1.25" cy="1.25" r="1.25"/>
          </g>
          <g fill="#000" fill-rule="nonzero" transform="translate(2.5 19.3)">
            <circle cx="31.25" cy="1.25" r="1.25"/>
            <circle cx="26.25" cy="1.25" r="1.25"/>
            <circle cx="21.25" cy="1.25" r="1.25"/>
            <circle cx="16.25" cy="1.25" r="1.25"/>
            <circle cx="11.25" cy="1.25" r="1.25"/>
            <circle cx="6.25" cy="1.25" r="1.25"/>
            <circle cx="1.25" cy="1.25" r="1.25"/>
          </g>
          <g fill="#000" fill-rule="nonzero" transform="translate(2.5 25.3)">
            <circle cx="31.25" cy="1.25" r="1.25"/>
            <circle cx="26.25" cy="1.25" r="1.25"/>
            <circle cx="21.25" cy="1.25" r="1.25"/>
            <circle cx="16.25" cy="1.25" r="1.25"/>
            <circle cx="11.25" cy="1.25" r="1.25"/>
            <circle cx="6.25" cy="1.25" r="1.25"/>
            <circle cx="1.25" cy="1.25" r="1.25"/>
          </g>
          <g fill="#000" fill-rule="nonzero" transform="translate(2.5 30.8)">
            <circle cx="31.25" cy="1.25" r="1.25"/>
            <circle cx="26.25" cy="1.25" r="1.25"/>
            <circle cx="21.25" cy="1.25" r="1.25"/>
            <circle cx="16.25" cy="1.25" r="1.25"/>
            <circle cx="11.25" cy="1.25" r="1.25"/>
            <circle cx="6.25" cy="1.25" r="1.25"/>
            <circle cx="1.25" cy="1.25" r="1.25"/>
          </g>
          <g fill="#000" fill-rule="nonzero" transform="translate(2.5 36.8)">
            <circle cx="31.25" cy="1.25" r="1.25"/>
            <circle cx="26.25" cy="1.25" r="1.25"/>
            <circle cx="21.25" cy="1.25" r="1.25"/>
            <circle cx="16.25" cy="1.25" r="1.25"/>
            <circle cx="11.25" cy="1.25" r="1.25"/>
            <circle cx="6.25" cy="1.25" r="1.25"/>
            <circle cx="1.25" cy="1.25" r="1.25"/>
          </g>
          <g fill="#000" fill-rule="nonzero" transform="translate(2.5 42.3)">
            <circle cx="31.25" cy="1.25" r="1.25"/>
            <circle cx="26.25" cy="1.25" r="1.25"/>
            <circle cx="21.25" cy="1.25" r="1.25"/>
            <circle cx="16.25" cy="1.25" r="1.25"/>
            <circle cx="11.25" cy="1.25" r="1.25"/>
            <circle cx="6.25" cy="1.25" r="1.25"/>
            <circle cx="1.25" cy="1.25" r="1.25"/>
          </g>
          <g fill="#000" fill-rule="nonzero" transform="translate(2.5 47.8)">
            <circle cx="31.25" cy="1.25" r="1.25"/>
            <circle cx="26.25" cy="1.25" r="1.25"/>
            <circle cx="21.25" cy="1.25" r="1.25"/>
            <circle cx="16.25" cy="1.25" r="1.25"/>
            <circle cx="11.25" cy="1.25" r="1.25"/>
            <circle cx="6.25" cy="1.25" r="1.25"/>
            <circle cx="1.25" cy="1.25" r="1.25"/>
          </g>
          <g fill="#000" fill-rule="nonzero" transform="translate(2.5 53.3)">
            <circle cx="31.25" cy="1.25" r="1.25"/>
            <circle cx="26.25" cy="1.25" r="1.25"/>
            <circle cx="21.25" cy="1.25" r="1.25"/>
            <circle cx="16.25" cy="1.25" r="1.25"/>
            <circle cx="11.25" cy="1.25" r="1.25"/>
            <circle cx="6.25" cy="1.25" r="1.25"/>
            <circle cx="1.25" cy="1.25" r="1.25"/>
          </g>
        </g>
      </g>
    </g>
    <g fill-rule="nonzero">
      <rect style="mix-blend-mode:multiply" width="144" height="144" fill="#000" opacity=".5"/>
      <path fill="#000" d="M115.840621,110.183766 C116.621669,110.964815 116.621669,112.231144 115.840621,113.012193 L113.012194,115.84062 C112.231145,116.621669 110.964815,116.621669 110.183766,115.84062 L28.1593796,33.8162338 C27.378331,33.0351852 27.378331,31.7688552 28.1593796,30.9878067 L30.9878067,28.1593795 C31.7688553,27.378331 33.0351853,27.378331 33.8162338,28.1593795 L115.840621,110.183766 Z M114.426407,111.597979 L32.4020203,29.5735931 L29.5735932,32.4020202 L111.59798,114.426407 L114.426407,111.597979 Z"/>
      <polygon fill="#FFF" points="130 70 14 70 14 74 130 74" transform="rotate(45 72 72)"/>
      <path fill="#000" fill-opacity=".4" d="M114,0 C120.021219,0 130.021219,0 144,0 C144,10.9023818 144,20.9023818 144,30 L144,114 C144,118.776827 144,128.776827 144,144 C130.268868,144 120.268868,144 114,144 L30,144 C23.3897242,144 13.3897242,144 0,144 C0,128.435419 0,118.435419 0,114 L0,30 C0,24.1780117 0,14.1780117 0,0 C14.7762933,0 24.7762933,0 30,0 L114,0 Z M114,8 L28,8 C15.9712382,8 8.19722475,15.6537257 8.00294735,27.6361897 L8,30 L8,116 C8,128.028762 15.6537258,135.802775 27.6361898,135.997052 L30,136 L116,136 C128.028762,136 135.802775,128.346274 135.997053,116.36381 L136,114 L136,28 C136,15.9712381 128.346274,8.19722475 116.36381,8.00294735 L114,8 Z"/>
    </g>
  </g>
</svg>
