<svg xmlns="http://www.w3.org/2000/svg" width="144" height="144" viewBox="0 0 144 144">
  <g fill="none">
    <rect width="144" height="144" fill="#1E183C"/>
    <path fill="#000" d="M75.0548975,39.7142857 C77.8635545,39.7142857 80.160874,41.90358 80.333436,44.6687481 L80.3438415,45.0032293 L80.3427005,48.4617041 C81.099688,48.0086577 81.979388,47.7395066 82.9200805,47.7159705 C83.8899195,46.4980224 85.3873415,45.7142857 87.067815,45.7142857 C89.8764715,45.7142857 92.173791,47.90358 92.346353,50.668748 L92.3567585,51.0032295 L92.355965,54.4614965 C93.1489295,53.9870005 94.0765245,53.7142857 95.067815,53.7142857 C97.5892065,53.7142857 99.6985095,55.4786465 100.22845,57.8400955 C102.490993,58.338575 104.210867,60.2907035 104.35927,62.668748 L104.369675,63.0032295 L104.368535,66.461704 C105.125737,66.0085295 106.005721,65.739354 106.946714,65.7159505 C107.915753,64.4980225 109.413175,63.7142857 111.093649,63.7142857 C113.902305,63.7142857 116.199625,65.90358 116.372187,68.668748 L116.382593,69.0032295 L116.381799,72.4614965 C117.174764,71.9870005 118.102358,71.7142857 119.093649,71.7142857 C121.902305,71.7142857 124.199625,73.90358 124.372187,76.668748 L124.382593,77.0032295 L124.382593,82.9967705 C124.382593,85.9177735 122.014652,88.2857145 119.093649,88.2857145 C116.284993,88.2857145 113.987673,86.09642 113.815111,83.331252 L113.804705,82.9967705 L113.805846,79.538296 C113.36487,79.8022135 112.882253,80.003726 112.370193,80.1306315 L112.369675,88.9967705 C112.369675,91.9177735 110.001735,94.2857145 107.080732,94.2857145 C104.272075,94.2857145 101.974756,92.09642 101.802194,89.331252 L101.791788,88.9967705 L101.792582,85.5385035 C101.3517,85.8023195 100.869201,86.003759 100.357276,86.1306315 L100.356758,100.99677 C100.356758,103.917773 97.9888175,106.285714 95.067815,106.285714 C92.259158,106.285714 89.9618385,104.09642 89.7892765,101.331252 L89.7788715,100.99677 L89.780012,97.538296 C89.3390365,97.8022135 88.856418,98.003726 88.344358,98.1306315 L88.3438415,106.99677 C88.3438415,109.917773 85.9759005,112.285714 83.0548975,112.285714 C80.246241,112.285714 77.9489215,110.09642 77.7763595,107.331252 L77.765954,106.99677 L77.7667475,103.538503 C76.973783,104.012999 76.0461885,104.285714 75.0548975,104.285714 C72.246241,104.285714 69.9489215,102.09642 69.7763595,99.331252 L69.765954,98.9967705 L69.7654375,88.1306315 C67.5654825,87.5854085 65.9089625,85.6630935 65.7634425,83.331252 L65.753037,82.9967705 L65.7538305,79.5385035 C65.312949,79.8023195 64.8304495,80.003759 64.318524,80.1306315 L64.318007,94.9967705 C64.318007,97.9177735 61.9500665,100.285714 59.0290635,100.285714 C56.220407,100.285714 53.9230875,98.09642 53.7505255,95.331252 L53.74012,94.9967705 L53.7392925,91.539473 C52.98221,91.9921305 52.1025075,92.260896 51.1618745,92.2840795 C50.1924435,93.502814 48.695723,94.2857145 47.0161464,94.2857145 C44.2074898,94.2857145 41.9101703,92.09642 41.7376082,89.331252 L41.7272028,88.9967705 L41.7279962,85.5385035 C40.9703374,85.991873 40.0897701,86.2610295 39.1481694,86.2840985 C38.1795264,87.502814 36.682806,88.2857145 35.0032293,88.2857145 C32.1945726,88.2857145 29.8972532,86.09642 29.7246911,83.331252 L29.7142857,82.9967705 L29.7134582,79.539473 C28.9208506,80.013371 27.9938445,80.2857145 27.0032293,80.2857145 C24.1945727,80.2857145 21.8972532,78.09642 21.7246911,75.331252 L21.7142857,74.9967705 L21.7142857,69.0032295 C21.7142857,66.0822265 24.0822264,63.7142857 27.0032293,63.7142857 C29.8118859,63.7142857 32.1092054,65.90358 32.2817675,68.668748 L32.2921729,69.0032295 L32.2910322,72.461704 C32.7320078,72.1977865 33.214626,71.996274 33.726686,71.8693685 L33.7272028,63.0032295 C33.7272028,60.0822265 36.0951435,57.7142857 39.0161464,57.7142857 C41.824803,57.7142857 44.1221226,59.90358 44.2946846,62.668748 L44.30509,63.0032295 L44.3042966,66.4614965 C44.7451783,66.1976805 45.2276776,65.996241 45.7396031,65.8693685 L45.74012,57.0032295 C45.74012,54.0822265 48.1080606,51.7142857 51.0290635,51.7142857 C53.83772,51.7142857 56.1350395,53.90358 56.3076015,56.668748 L56.318007,57.0032295 L56.3168665,60.461704 C57.1099075,59.98708 58.037628,59.7142857 59.0290635,59.7142857 C61.550455,59.7142857 63.659758,61.4786465 64.1896995,63.8400955 C66.453254,64.3397245 68.172159,66.2914035 68.320519,68.668748 L68.330924,69.0032295 L68.330131,72.4614965 C68.7710125,72.1976805 69.253512,71.996241 69.7654375,71.8693685 L69.765954,45.0032293 C69.765954,42.0822264 72.133895,39.7142857 75.0548975,39.7142857 Z M75.0548975,42 C73.5328535,42 72.2752605,43.1322484 72.07845,44.6004133 L72.0654165,44.7139982 L72.0516685,45.0032293 L72.0516685,98.9967705 L72.0654165,99.2860015 C72.197949,100.672966 73.2738075,101.784665 74.6440185,101.972127 L74.7656665,101.986252 L75.0548975,102 L75.344129,101.986252 L75.625581,101.945847 C76.8785015,101.704825 77.8543725,100.68517 78.029908,99.4101685 L78.044379,99.2860015 L78.058127,98.9967705 L78.058127,45.0032293 L78.044379,44.7139982 C77.898853,43.1910568 76.6159685,42 75.0548975,42 Z M87.067815,48 C85.545771,48 84.2881775,49.1322484 84.091367,50.6004135 L84.0783335,50.7139985 L84.0645855,51.0032295 L84.0645855,92.9967705 L84.0783335,93.2860015 C84.210866,94.672966 85.2867245,95.7846655 86.6569355,95.9721265 L86.778584,95.986252 L87.067815,96 L87.357046,95.986252 L87.6384985,95.9458475 C88.891419,95.704825 89.86729,94.68517 90.042825,93.4101685 L90.057296,93.2860015 L90.071044,92.9967705 L90.071044,51.0032295 L90.057296,50.7139985 C89.91177,49.1910568 88.6288855,48 87.067815,48 Z M51.0290635,54 C49.5070195,54 48.2494262,55.1322485 48.0526158,56.6004135 L48.0395822,56.7139985 L48.0258343,57.0032295 L48.0258343,86.9967705 L48.0395822,87.2860015 C48.1721147,88.672966 49.2479731,89.7846655 50.618184,89.9721265 L50.7398325,89.986252 L51.0290635,90 L51.3182945,89.986252 L51.599747,89.9458475 C52.8526675,89.704825 53.8285385,88.68517 54.0040735,87.4101685 L54.018545,87.2860015 L54.032293,86.9967705 L54.032293,57.0032295 L54.018545,56.7139985 C53.873019,55.191057 52.5901345,54 51.0290635,54 Z M39.0161464,60 C37.4941023,60 36.2365091,61.1322485 36.0396986,62.6004135 L36.026665,62.7139985 L36.0129171,63.0032295 L36.0129171,80.9967705 L36.026665,81.2860015 C36.1591977,82.672966 37.235056,83.7846655 38.605267,83.9721265 L38.7269153,83.986252 L39.0161464,84 L39.3053774,83.986252 L39.5868299,83.9458475 C40.8397504,83.704825 41.8156214,82.68517 41.9911565,81.4101685 L42.0056278,81.2860015 L42.0193757,80.9967705 L42.0193757,63.0032295 L42.0056278,62.7139985 C41.8601017,61.191057 40.5772172,60 39.0161464,60 Z M99.080732,60 C97.558688,60 96.3010945,61.1322485 96.104284,62.6004135 L96.0912505,62.7139985 L96.0775025,63.0032295 L96.0775025,80.9967705 L96.0912505,81.2860015 C96.223783,82.672966 97.2996415,83.7846655 98.6698525,83.9721265 L98.791501,83.986252 L99.080732,84 L99.369963,83.986252 L99.6514155,83.9458475 C100.904336,83.704825 101.880207,82.68517 102.055742,81.4101685 L102.070213,81.2860015 L102.083961,80.9967705 L102.083961,63.0032295 L102.070213,62.7139985 C101.924688,61.191057 100.641803,60 99.080732,60 Z M27.0032293,66 C25.4811852,66 24.223592,67.1322485 24.0267815,68.6004135 L24.0137479,68.7139985 L24,69.0032295 L24,74.9967705 L24.0137479,75.2860015 C24.1462805,76.672966 25.2221389,77.7846655 26.5923499,77.9721265 L26.7139982,77.986252 L27.0032293,78 L27.2924603,77.986252 L27.5739128,77.9458475 C28.8268332,77.704825 29.8027043,76.68517 29.9782393,75.4101685 L29.9927106,75.2860015 L30.0064586,74.9967705 L30.0064586,69.0032295 L29.9927106,68.7139985 C29.8471846,67.191057 28.5643001,66 27.0032293,66 Z M63.0419805,66 C61.5199365,66 60.2623435,67.1322485 60.065533,68.6004135 L60.0524995,68.7139985 L60.0387515,69.0032295 L60.0387515,74.9967705 L60.0524995,75.2860015 C60.185032,76.672966 61.26089,77.7846655 62.6311015,77.9721265 L62.7527495,77.986252 L63.0419805,78 L63.3312115,77.986252 L63.612664,77.9458475 C64.8655845,77.704825 65.8414555,76.68517 66.0169905,75.4101685 L66.031462,75.2860015 L66.04521,74.9967705 L66.04521,69.0032295 L66.031462,68.7139985 C65.885936,67.191057 64.6030515,66 63.0419805,66 Z M111.093649,66 C109.571605,66 108.314012,67.1322485 108.117201,68.6004135 L108.104168,68.7139985 L108.09042,69.0032295 L108.09042,74.9967705 L108.104168,75.2860015 C108.2367,76.672966 109.312558,77.7846655 110.68277,77.9721265 L110.804418,77.986252 L111.093649,78 L111.38288,77.986252 L111.664333,77.9458475 C112.917253,77.704825 113.893124,76.68517 114.068659,75.4101685 L114.08313,75.2860015 L114.096879,74.9967705 L114.096879,69.0032295 L114.08313,68.7139985 C113.937605,67.191057 112.65472,66 111.093649,66 Z"/>
    <path fill="#FFF" d="M75.0548975,42 C76.6159685,42 77.898853,43.1910569 78.044379,44.7139983 L78.058127,45.0032293 L78.058127,98.9967705 L78.044379,99.2860015 C77.917044,100.618576 76.9189185,101.69705 75.625581,101.945847 L75.344129,101.986252 L75.0548975,102 L74.7656665,101.986252 C73.337909,101.849822 72.201847,100.713759 72.0654165,99.2860015 L72.0516685,98.9967705 L72.0516685,45.0032293 L72.0654165,44.7139983 C72.2109425,43.1910569 73.493827,42 75.0548975,42 Z M87.067815,48 C88.6288855,48 89.91177,49.1910569 90.057296,50.7139985 L90.071044,51.0032295 L90.071044,92.9967705 L90.057296,93.2860015 C89.929961,94.6185755 88.9318355,95.69705 87.6384985,95.9458475 L87.357046,95.986252 L87.067815,96 L86.778584,95.986252 C85.3508265,95.8498215 84.214764,94.7137595 84.0783335,93.2860015 L84.0645855,92.9967705 L84.0645855,51.0032295 L84.0783335,50.7139985 C84.2238595,49.1910569 85.506744,48 87.067815,48 Z M51.0290635,54 C52.5901345,54 53.873019,55.191057 54.018545,56.7139985 L54.032293,57.0032295 L54.032293,86.9967705 L54.018545,87.2860015 C53.8912095,88.6185755 52.893084,89.69705 51.599747,89.9458475 L51.3182945,89.986252 L51.0290635,90 L50.7398325,89.986252 C49.3120749,89.8498215 48.1760127,88.7137595 48.0395822,87.2860015 L48.0258343,86.9967705 L48.0258343,57.0032295 L48.0395822,56.7139985 C48.1851081,55.191057 49.4679927,54 51.0290635,54 Z M39.0161464,60 C40.5772172,60 41.8601017,61.191057 42.0056278,62.7139985 L42.0193757,63.0032295 L42.0193757,80.9967705 L42.0056278,81.2860015 C41.8782925,82.6185755 40.8801671,83.69705 39.5868299,83.9458475 L39.3053774,83.986252 L39.0161464,84 L38.7269153,83.986252 C37.2991578,83.8498215 36.1630957,82.7137595 36.026665,81.2860015 L36.0129171,80.9967705 L36.0129171,63.0032295 L36.026665,62.7139985 C36.172191,61.191057 37.4550756,60 39.0161464,60 Z M99.080732,60 C100.641803,60 101.924688,61.191057 102.070213,62.7139985 L102.083961,63.0032295 L102.083961,80.9967705 L102.070213,81.2860015 C101.942878,82.6185755 100.944753,83.69705 99.6514155,83.9458475 L99.369963,83.986252 L99.080732,84 L98.791501,83.986252 C97.3637435,83.8498215 96.227681,82.7137595 96.0912505,81.2860015 L96.0775025,80.9967705 L96.0775025,63.0032295 L96.0912505,62.7139985 C96.2367765,61.191057 97.519661,60 99.080732,60 Z M27.0032293,66 C28.5643001,66 29.8471846,67.191057 29.9927106,68.7139985 L30.0064586,69.0032295 L30.0064586,74.9967705 L29.9927106,75.2860015 C29.8653754,76.6185755 28.86725,77.69705 27.5739128,77.9458475 L27.2924603,77.986252 L27.0032293,78 L26.7139982,77.986252 C25.2862407,77.8498215 24.1501785,76.7137595 24.0137479,75.2860015 L24,74.9967705 L24,69.0032295 L24.0137479,68.7139985 C24.1592739,67.191057 25.4421585,66 27.0032293,66 Z M63.0419805,66 C64.6030515,66 65.885936,67.191057 66.031462,68.7139985 L66.04521,69.0032295 L66.04521,74.9967705 L66.031462,75.2860015 C65.9041265,76.6185755 64.9060015,77.69705 63.612664,77.9458475 L63.3312115,77.986252 L63.0419805,78 L62.7527495,77.986252 C61.324992,77.8498215 60.18893,76.7137595 60.0524995,75.2860015 L60.0387515,74.9967705 L60.0387515,69.0032295 L60.0524995,68.7139985 C60.1980255,67.191057 61.48091,66 63.0419805,66 Z M111.093649,66 C112.65472,66 113.937605,67.191057 114.08313,68.7139985 L114.096879,69.0032295 L114.096879,74.9967705 L114.08313,75.2860015 C113.955795,76.6185755 112.95767,77.69705 111.664333,77.9458475 L111.38288,77.986252 L111.093649,78 L110.804418,77.986252 C109.37666,77.8498215 108.240599,76.7137595 108.104168,75.2860015 L108.09042,74.9967705 L108.09042,69.0032295 L108.104168,68.7139985 C108.249694,67.191057 109.532578,66 111.093649,66 Z" opacity=".9"/>
  </g>
</svg>
