<svg xmlns="http://www.w3.org/2000/svg" width="144" height="144" viewBox="0 0 144 144">
  <g fill="none">
    <rect width="144" height="144" fill="#000" opacity=".013"/>
    <path fill="#FFF" d="M74.161,42.918 L74.161,101.318 L79.161,104.118 L84.161,101.318 L84.161,42.918 L79.161,40.118 L74.161,42.918 Z M88.161,52.918 L88.161,91.218 L93.161,94.018 L98.161,91.218 L98.161,52.918 L93.161,50.118 L88.161,52.918 Z M102.161,62.918 L102.161,81.418 L107.161,84.118 L112.161,81.418 L112.161,62.918 L107.161,60.118 L102.161,62.918 Z M32.161,62.918 L32.161,81.418 L37.161,84.118 L42.161,81.418 L42.161,62.918 L37.161,60.118 L32.161,62.918 Z M18.161,67.118 L18.161,77.118 L23.161,80.118 L28.161,77.118 L28.161,67.118 L23.161,64.118 L18.161,67.118 Z M60.161,67.118 L60.161,77.118 L65.161,80.118 L70.161,77.118 L70.161,67.118 L65.161,64.118 L60.161,67.118 Z M46.161,57.118 L46.161,87.218 L51.161,90.118 L56.161,87.218 L56.161,57.118 L51.161,54.118 L46.161,57.118 Z M116.161,69.518 L116.161,74.718 L120.961,78.118 L125.861,74.718 L125.861,69.518 L120.961,66.118 L116.161,69.518 Z"/>
  </g>
</svg>
